# xmcd CD database file
#
# Track frame offsets:
#	150
#	21562
#	35443
#	48132
#	64711
#	93761
#	112414
#	131531
#	146633
#	190291
#	209844
#
# Disc length: 2949 seconds
#
# Revision: 1
# Processed by: cddbd v1.5.2PL0 Copyright (c) Steve Scherf et al.
# Submitted via: CDex 1.70beta2
#
DISCID=a70b830b
DTITLE=J.R. and Th' Farm - Live at the Jubitz Ponderosa Lounge
DYEAR=2007
DGENRE=Country
TTITLE0=Straight to Hell
TTITLE1=Thrown out the Bar
TTITLE2=Country Heroes
TTITLE3=Folsom Prison
TTITLE4=Riverside
TTITLE5=Nine Dollars to Hollywood
TTITLE6=Silver Platter
TTITLE7=I Wish You Were Dead
TTITLE8=Hurl'in and Twirl'in
TTITLE9=Gun Sale at the Church
TTITLE10=Sultans of Swing
EXTD=YEAR: 2007
EXTT0=
EXTT1=
EXTT2=
EXTT3=
EXTT4=
EXTT5=
EXTT6=
EXTT7=
EXTT8=
EXTT9=
EXTT10=
PLAYORDER=
